<?xml version="1.0" standalone="no"?>
<!DOCTYPE svg PUBLIC "-//W3C//DTD SVG 20010904//EN"
 "http://www.w3.org/TR/2001/REC-SVG-20010904/DTD/svg10.dtd">
<svg version="1.0" xmlns="http://www.w3.org/2000/svg"
 width="512.000000pt" height="512.000000pt" viewBox="0 0 512.000000 512.000000"
 preserveAspectRatio="xMidYMid meet">

<g transform="translate(0.000000,512.000000) scale(0.100000,-0.100000)"
fill="#000000" stroke="none">
<path d="M435 5108 c-198 -37 -388 -230 -424 -432 -8 -41 -11 -535 -11 -1570
0 -1258 3 -1522 14 -1577 37 -175 169 -328 341 -396 l70 -28 388 -3 387 -3 -5
-37 c-14 -95 -95 -849 -95 -884 0 -42 26 -103 57 -130 28 -25 88 -48 125 -48
18 0 51 9 73 19 22 11 302 256 628 550 l589 531 1061 2 1062 3 70 28 c172 68
304 221 341 396 11 55 14 319 14 1577 0 1035 -3 1529 -11 1570 -37 206 -227
396 -433 433 -77 14 -4167 13 -4241 -1z m4227 -380 c22 -13 51 -41 64 -64 l24
-41 0 -1512 c0 -1497 0 -1512 -20 -1551 -11 -22 -39 -52 -62 -67 l-42 -28
-1095 -5 c-819 -4 -1101 -8 -1117 -17 -11 -6 -216 -188 -455 -403 -261 -235
-435 -385 -437 -376 -2 8 11 136 27 286 34 294 37 369 20 403 -15 28 -58 76
-84 90 -14 9 -163 13 -506 17 l-485 5 -42 28 c-23 15 -51 45 -62 67 -20 39
-20 54 -20 1552 l0 1513 24 39 c13 21 41 49 62 62 l39 24 2064 0 2063 0 40
-22z"/>
</g>
</svg>
