<?xml version="1.0" standalone="no"?>
<!DOCTYPE svg PUBLIC "-//W3C//DTD SVG 20010904//EN"
 "http://www.w3.org/TR/2001/REC-SVG-20010904/DTD/svg10.dtd">
<svg version="1.0" xmlns="http://www.w3.org/2000/svg"
 width="512.000000pt" height="512.000000pt" viewBox="0 0 512.000000 512.000000"
 preserveAspectRatio="xMidYMid meet">

<g transform="translate(0.000000,512.000000) scale(0.100000,-0.100000)"
fill="#000000" stroke="none">
<path d="M1542 3830 c-199 -41 -312 -261 -228 -445 24 -52 76 -109 409 -442
l381 -383 -391 -392 c-363 -365 -392 -397 -412 -451 -26 -71 -28 -164 -4 -233
23 -67 120 -164 187 -187 69 -24 162 -22 233 4 54 20 86 49 451 412 l392 391
383 -381 c434 -433 438 -436 573 -436 231 0 386 239 290 448 -24 52 -76 109
-409 442 l-381 383 391 392 c368 370 392 397 413 453 28 78 25 188 -8 255 -28
59 -92 124 -151 152 -68 33 -177 37 -256 8 -56 -21 -83 -45 -453 -413 l-392
-391 -383 381 c-323 323 -390 386 -437 407 -64 28 -137 38 -198 26z"/>
</g>
</svg>
